<mxfile host="app.diagrams.net" modified="2021-09-10T18:50:35.028Z" agent="5.0 (X11; Linux x86_64) AppleWebKit/537.36 (KHTML, like Gecko) Chrome/92.0.4515.159 Safari/537.36" etag="fskWN5QmsuZ_FfCuuSi7" version="15.1.4" type="github">
  <diagram id="zEbEwsxPHfN8SUxE4QgK" name="Page-1">
    <mxGraphModel dx="870" dy="342" grid="1" gridSize="10" guides="1" tooltips="1" connect="1" arrows="1" fold="1" page="1" pageScale="1" pageWidth="827" pageHeight="1169" math="0" shadow="0">
      <root>
        <mxCell id="0" />
        <mxCell id="1" parent="0" />
        <mxCell id="xbuV6k483LfTjN_j53Jr-1" value="" style="html=1;labelBackgroundColor=#ffffff;startArrow=none;startFill=0;startSize=6;endArrow=classic;endFill=1;endSize=6;jettySize=auto;orthogonalLoop=1;strokeWidth=1;dashed=1;fontSize=14;exitX=0.5;exitY=0;exitDx=0;exitDy=0;" edge="1" parent="1">
          <mxGeometry width="60" height="60" relative="1" as="geometry">
            <mxPoint x="680" y="440" as="sourcePoint" />
            <mxPoint x="840" y="360" as="targetPoint" />
          </mxGeometry>
        </mxCell>
        <mxCell id="xbuV6k483LfTjN_j53Jr-2" value="" style="html=1;labelBackgroundColor=#ffffff;startArrow=none;startFill=0;startSize=6;endArrow=classic;endFill=1;endSize=6;jettySize=auto;orthogonalLoop=1;strokeWidth=1;dashed=1;fontSize=14;exitX=0.5;exitY=0;exitDx=0;exitDy=0;" edge="1" parent="1">
          <mxGeometry width="60" height="60" relative="1" as="geometry">
            <mxPoint x="690" y="450" as="sourcePoint" />
            <mxPoint x="850" y="370" as="targetPoint" />
          </mxGeometry>
        </mxCell>
        <mxCell id="xbuV6k483LfTjN_j53Jr-3" value="" style="ellipse;whiteSpace=wrap;html=1;aspect=fixed;" vertex="1" parent="1">
          <mxGeometry x="1400" y="160" width="80" height="80" as="geometry" />
        </mxCell>
        <mxCell id="xbuV6k483LfTjN_j53Jr-4" value="" style="endArrow=none;html=1;exitX=0.5;exitY=1;exitDx=0;exitDy=0;entryX=0.5;entryY=0;entryDx=0;entryDy=0;" edge="1" parent="1" source="xbuV6k483LfTjN_j53Jr-3" target="xbuV6k483LfTjN_j53Jr-3">
          <mxGeometry width="50" height="50" relative="1" as="geometry">
            <mxPoint x="1460" y="340" as="sourcePoint" />
            <mxPoint x="1510" y="290" as="targetPoint" />
          </mxGeometry>
        </mxCell>
        <mxCell id="xbuV6k483LfTjN_j53Jr-5" value="" style="endArrow=none;html=1;exitX=1;exitY=0.5;exitDx=0;exitDy=0;" edge="1" parent="1" source="xbuV6k483LfTjN_j53Jr-3">
          <mxGeometry width="50" height="50" relative="1" as="geometry">
            <mxPoint x="1780" y="360" as="sourcePoint" />
            <mxPoint x="1440" y="200" as="targetPoint" />
          </mxGeometry>
        </mxCell>
        <mxCell id="xbuV6k483LfTjN_j53Jr-6" value="8" style="text;html=1;strokeColor=none;fillColor=none;align=center;verticalAlign=middle;whiteSpace=wrap;rounded=0;" vertex="1" parent="1">
          <mxGeometry x="1400" y="190" width="40" height="20" as="geometry" />
        </mxCell>
        <mxCell id="xbuV6k483LfTjN_j53Jr-7" value="19" style="text;html=1;strokeColor=none;fillColor=none;align=center;verticalAlign=middle;whiteSpace=wrap;rounded=0;" vertex="1" parent="1">
          <mxGeometry x="1440" y="170" width="40" height="20" as="geometry" />
        </mxCell>
        <mxCell id="xbuV6k483LfTjN_j53Jr-8" value="19" style="text;html=1;strokeColor=none;fillColor=none;align=center;verticalAlign=middle;whiteSpace=wrap;rounded=0;" vertex="1" parent="1">
          <mxGeometry x="1440" y="210" width="40" height="20" as="geometry" />
        </mxCell>
        <mxCell id="xbuV6k483LfTjN_j53Jr-51" style="edgeStyle=orthogonalEdgeStyle;rounded=0;orthogonalLoop=1;jettySize=auto;html=1;exitX=1;exitY=0.5;exitDx=0;exitDy=0;entryX=0;entryY=0.5;entryDx=0;entryDy=0;" edge="1" parent="1" source="xbuV6k483LfTjN_j53Jr-9" target="xbuV6k483LfTjN_j53Jr-18">
          <mxGeometry relative="1" as="geometry" />
        </mxCell>
        <mxCell id="xbuV6k483LfTjN_j53Jr-9" value="" style="ellipse;whiteSpace=wrap;html=1;aspect=fixed;" vertex="1" parent="1">
          <mxGeometry x="280" y="160" width="80" height="80" as="geometry" />
        </mxCell>
        <mxCell id="xbuV6k483LfTjN_j53Jr-10" value="" style="endArrow=none;html=1;exitX=0.5;exitY=1;exitDx=0;exitDy=0;entryX=0.5;entryY=0;entryDx=0;entryDy=0;" edge="1" parent="1" source="xbuV6k483LfTjN_j53Jr-9" target="xbuV6k483LfTjN_j53Jr-9">
          <mxGeometry width="50" height="50" relative="1" as="geometry">
            <mxPoint x="340" y="340" as="sourcePoint" />
            <mxPoint x="390" y="290" as="targetPoint" />
          </mxGeometry>
        </mxCell>
        <mxCell id="xbuV6k483LfTjN_j53Jr-11" value="" style="endArrow=none;html=1;exitX=1;exitY=0.5;exitDx=0;exitDy=0;" edge="1" parent="1" source="xbuV6k483LfTjN_j53Jr-9">
          <mxGeometry width="50" height="50" relative="1" as="geometry">
            <mxPoint x="660" y="360" as="sourcePoint" />
            <mxPoint x="320" y="200" as="targetPoint" />
          </mxGeometry>
        </mxCell>
        <mxCell id="xbuV6k483LfTjN_j53Jr-12" value="1" style="text;html=1;strokeColor=none;fillColor=none;align=center;verticalAlign=middle;whiteSpace=wrap;rounded=0;" vertex="1" parent="1">
          <mxGeometry x="280" y="190" width="40" height="20" as="geometry" />
        </mxCell>
        <mxCell id="xbuV6k483LfTjN_j53Jr-13" value="0" style="text;html=1;strokeColor=none;fillColor=none;align=center;verticalAlign=middle;whiteSpace=wrap;rounded=0;" vertex="1" parent="1">
          <mxGeometry x="320" y="170" width="40" height="20" as="geometry" />
        </mxCell>
        <mxCell id="xbuV6k483LfTjN_j53Jr-14" value="0" style="text;html=1;strokeColor=none;fillColor=none;align=center;verticalAlign=middle;whiteSpace=wrap;rounded=0;" vertex="1" parent="1">
          <mxGeometry x="320" y="210" width="40" height="20" as="geometry" />
        </mxCell>
        <mxCell id="xbuV6k483LfTjN_j53Jr-52" style="edgeStyle=orthogonalEdgeStyle;rounded=0;orthogonalLoop=1;jettySize=auto;html=1;exitX=1;exitY=0.5;exitDx=0;exitDy=0;entryX=0;entryY=0.5;entryDx=0;entryDy=0;" edge="1" parent="1" source="xbuV6k483LfTjN_j53Jr-15" target="xbuV6k483LfTjN_j53Jr-24">
          <mxGeometry relative="1" as="geometry" />
        </mxCell>
        <mxCell id="xbuV6k483LfTjN_j53Jr-15" value="" style="ellipse;whiteSpace=wrap;html=1;aspect=fixed;" vertex="1" parent="1">
          <mxGeometry x="440" y="160" width="80" height="80" as="geometry" />
        </mxCell>
        <mxCell id="xbuV6k483LfTjN_j53Jr-16" value="" style="endArrow=none;html=1;exitX=0.5;exitY=1;exitDx=0;exitDy=0;entryX=0.5;entryY=0;entryDx=0;entryDy=0;" edge="1" parent="1" source="xbuV6k483LfTjN_j53Jr-15" target="xbuV6k483LfTjN_j53Jr-15">
          <mxGeometry width="50" height="50" relative="1" as="geometry">
            <mxPoint x="500" y="340" as="sourcePoint" />
            <mxPoint x="550" y="290" as="targetPoint" />
          </mxGeometry>
        </mxCell>
        <mxCell id="xbuV6k483LfTjN_j53Jr-17" value="" style="endArrow=none;html=1;exitX=1;exitY=0.5;exitDx=0;exitDy=0;" edge="1" parent="1" source="xbuV6k483LfTjN_j53Jr-15">
          <mxGeometry width="50" height="50" relative="1" as="geometry">
            <mxPoint x="820" y="360" as="sourcePoint" />
            <mxPoint x="480" y="200" as="targetPoint" />
          </mxGeometry>
        </mxCell>
        <mxCell id="xbuV6k483LfTjN_j53Jr-18" value="2" style="text;html=1;strokeColor=none;fillColor=none;align=center;verticalAlign=middle;whiteSpace=wrap;rounded=0;" vertex="1" parent="1">
          <mxGeometry x="440" y="190" width="40" height="20" as="geometry" />
        </mxCell>
        <mxCell id="xbuV6k483LfTjN_j53Jr-19" value="10" style="text;html=1;strokeColor=none;fillColor=none;align=center;verticalAlign=middle;whiteSpace=wrap;rounded=0;" vertex="1" parent="1">
          <mxGeometry x="480" y="170" width="40" height="20" as="geometry" />
        </mxCell>
        <mxCell id="xbuV6k483LfTjN_j53Jr-20" value="10" style="text;html=1;strokeColor=none;fillColor=none;align=center;verticalAlign=middle;whiteSpace=wrap;rounded=0;" vertex="1" parent="1">
          <mxGeometry x="480" y="210" width="40" height="20" as="geometry" />
        </mxCell>
        <mxCell id="xbuV6k483LfTjN_j53Jr-53" value="" style="edgeStyle=orthogonalEdgeStyle;rounded=0;orthogonalLoop=1;jettySize=auto;html=1;" edge="1" parent="1" source="xbuV6k483LfTjN_j53Jr-21" target="xbuV6k483LfTjN_j53Jr-30">
          <mxGeometry relative="1" as="geometry" />
        </mxCell>
        <mxCell id="xbuV6k483LfTjN_j53Jr-21" value="" style="ellipse;whiteSpace=wrap;html=1;aspect=fixed;" vertex="1" parent="1">
          <mxGeometry x="600" y="160" width="80" height="80" as="geometry" />
        </mxCell>
        <mxCell id="xbuV6k483LfTjN_j53Jr-22" value="" style="endArrow=none;html=1;exitX=0.5;exitY=1;exitDx=0;exitDy=0;entryX=0.5;entryY=0;entryDx=0;entryDy=0;" edge="1" parent="1" source="xbuV6k483LfTjN_j53Jr-21" target="xbuV6k483LfTjN_j53Jr-21">
          <mxGeometry width="50" height="50" relative="1" as="geometry">
            <mxPoint x="660" y="340" as="sourcePoint" />
            <mxPoint x="710" y="290" as="targetPoint" />
          </mxGeometry>
        </mxCell>
        <mxCell id="xbuV6k483LfTjN_j53Jr-23" value="" style="endArrow=none;html=1;exitX=1;exitY=0.5;exitDx=0;exitDy=0;" edge="1" parent="1" source="xbuV6k483LfTjN_j53Jr-21">
          <mxGeometry width="50" height="50" relative="1" as="geometry">
            <mxPoint x="980" y="360" as="sourcePoint" />
            <mxPoint x="640" y="200" as="targetPoint" />
          </mxGeometry>
        </mxCell>
        <mxCell id="xbuV6k483LfTjN_j53Jr-24" value="3" style="text;html=1;strokeColor=none;fillColor=none;align=center;verticalAlign=middle;whiteSpace=wrap;rounded=0;" vertex="1" parent="1">
          <mxGeometry x="600" y="190" width="40" height="20" as="geometry" />
        </mxCell>
        <mxCell id="xbuV6k483LfTjN_j53Jr-25" value="10 1/2" style="text;html=1;strokeColor=none;fillColor=none;align=center;verticalAlign=middle;whiteSpace=wrap;rounded=0;" vertex="1" parent="1">
          <mxGeometry x="640" y="170" width="40" height="20" as="geometry" />
        </mxCell>
        <mxCell id="xbuV6k483LfTjN_j53Jr-26" value="10 1/2" style="text;html=1;strokeColor=none;fillColor=none;align=center;verticalAlign=middle;whiteSpace=wrap;rounded=0;" vertex="1" parent="1">
          <mxGeometry x="640" y="210" width="40" height="20" as="geometry" />
        </mxCell>
        <mxCell id="xbuV6k483LfTjN_j53Jr-54" value="" style="edgeStyle=orthogonalEdgeStyle;rounded=0;orthogonalLoop=1;jettySize=auto;html=1;" edge="1" parent="1" source="xbuV6k483LfTjN_j53Jr-27" target="xbuV6k483LfTjN_j53Jr-36">
          <mxGeometry relative="1" as="geometry" />
        </mxCell>
        <mxCell id="xbuV6k483LfTjN_j53Jr-27" value="" style="ellipse;whiteSpace=wrap;html=1;aspect=fixed;" vertex="1" parent="1">
          <mxGeometry x="760" y="160" width="80" height="80" as="geometry" />
        </mxCell>
        <mxCell id="xbuV6k483LfTjN_j53Jr-28" value="" style="endArrow=none;html=1;exitX=0.5;exitY=1;exitDx=0;exitDy=0;entryX=0.5;entryY=0;entryDx=0;entryDy=0;" edge="1" parent="1" source="xbuV6k483LfTjN_j53Jr-27" target="xbuV6k483LfTjN_j53Jr-27">
          <mxGeometry width="50" height="50" relative="1" as="geometry">
            <mxPoint x="820" y="340" as="sourcePoint" />
            <mxPoint x="870" y="290" as="targetPoint" />
          </mxGeometry>
        </mxCell>
        <mxCell id="xbuV6k483LfTjN_j53Jr-29" value="" style="endArrow=none;html=1;exitX=1;exitY=0.5;exitDx=0;exitDy=0;" edge="1" parent="1" source="xbuV6k483LfTjN_j53Jr-27">
          <mxGeometry width="50" height="50" relative="1" as="geometry">
            <mxPoint x="1140" y="360" as="sourcePoint" />
            <mxPoint x="800" y="200" as="targetPoint" />
          </mxGeometry>
        </mxCell>
        <mxCell id="xbuV6k483LfTjN_j53Jr-30" value="4" style="text;html=1;strokeColor=none;fillColor=none;align=center;verticalAlign=middle;whiteSpace=wrap;rounded=0;" vertex="1" parent="1">
          <mxGeometry x="760" y="190" width="40" height="20" as="geometry" />
        </mxCell>
        <mxCell id="xbuV6k483LfTjN_j53Jr-31" value="11" style="text;html=1;strokeColor=none;fillColor=none;align=center;verticalAlign=middle;whiteSpace=wrap;rounded=0;" vertex="1" parent="1">
          <mxGeometry x="800" y="170" width="40" height="20" as="geometry" />
        </mxCell>
        <mxCell id="xbuV6k483LfTjN_j53Jr-32" value="11" style="text;html=1;strokeColor=none;fillColor=none;align=center;verticalAlign=middle;whiteSpace=wrap;rounded=0;" vertex="1" parent="1">
          <mxGeometry x="800" y="210" width="40" height="20" as="geometry" />
        </mxCell>
        <mxCell id="xbuV6k483LfTjN_j53Jr-55" value="" style="edgeStyle=orthogonalEdgeStyle;rounded=0;orthogonalLoop=1;jettySize=auto;html=1;" edge="1" parent="1" source="xbuV6k483LfTjN_j53Jr-33" target="xbuV6k483LfTjN_j53Jr-42">
          <mxGeometry relative="1" as="geometry" />
        </mxCell>
        <mxCell id="xbuV6k483LfTjN_j53Jr-33" value="" style="ellipse;whiteSpace=wrap;html=1;aspect=fixed;" vertex="1" parent="1">
          <mxGeometry x="920" y="160" width="80" height="80" as="geometry" />
        </mxCell>
        <mxCell id="xbuV6k483LfTjN_j53Jr-34" value="" style="endArrow=none;html=1;exitX=0.5;exitY=1;exitDx=0;exitDy=0;entryX=0.5;entryY=0;entryDx=0;entryDy=0;" edge="1" parent="1" source="xbuV6k483LfTjN_j53Jr-33" target="xbuV6k483LfTjN_j53Jr-33">
          <mxGeometry width="50" height="50" relative="1" as="geometry">
            <mxPoint x="980" y="340" as="sourcePoint" />
            <mxPoint x="1030" y="290" as="targetPoint" />
          </mxGeometry>
        </mxCell>
        <mxCell id="xbuV6k483LfTjN_j53Jr-35" value="" style="endArrow=none;html=1;exitX=1;exitY=0.5;exitDx=0;exitDy=0;" edge="1" parent="1" source="xbuV6k483LfTjN_j53Jr-33">
          <mxGeometry width="50" height="50" relative="1" as="geometry">
            <mxPoint x="1300" y="360" as="sourcePoint" />
            <mxPoint x="960" y="200" as="targetPoint" />
          </mxGeometry>
        </mxCell>
        <mxCell id="xbuV6k483LfTjN_j53Jr-36" value="5" style="text;html=1;strokeColor=none;fillColor=none;align=center;verticalAlign=middle;whiteSpace=wrap;rounded=0;" vertex="1" parent="1">
          <mxGeometry x="920" y="190" width="40" height="20" as="geometry" />
        </mxCell>
        <mxCell id="xbuV6k483LfTjN_j53Jr-37" value="13 1/2" style="text;html=1;strokeColor=none;fillColor=none;align=center;verticalAlign=middle;whiteSpace=wrap;rounded=0;" vertex="1" parent="1">
          <mxGeometry x="960" y="170" width="40" height="20" as="geometry" />
        </mxCell>
        <mxCell id="xbuV6k483LfTjN_j53Jr-38" value="13 1/2" style="text;html=1;strokeColor=none;fillColor=none;align=center;verticalAlign=middle;whiteSpace=wrap;rounded=0;" vertex="1" parent="1">
          <mxGeometry x="960" y="210" width="40" height="20" as="geometry" />
        </mxCell>
        <mxCell id="xbuV6k483LfTjN_j53Jr-56" style="edgeStyle=orthogonalEdgeStyle;rounded=0;orthogonalLoop=1;jettySize=auto;html=1;exitX=1;exitY=0.5;exitDx=0;exitDy=0;" edge="1" parent="1" source="xbuV6k483LfTjN_j53Jr-39" target="xbuV6k483LfTjN_j53Jr-48">
          <mxGeometry relative="1" as="geometry" />
        </mxCell>
        <mxCell id="xbuV6k483LfTjN_j53Jr-39" value="" style="ellipse;whiteSpace=wrap;html=1;aspect=fixed;" vertex="1" parent="1">
          <mxGeometry x="1080" y="160" width="80" height="80" as="geometry" />
        </mxCell>
        <mxCell id="xbuV6k483LfTjN_j53Jr-40" value="" style="endArrow=none;html=1;exitX=0.5;exitY=1;exitDx=0;exitDy=0;entryX=0.5;entryY=0;entryDx=0;entryDy=0;" edge="1" parent="1" source="xbuV6k483LfTjN_j53Jr-39" target="xbuV6k483LfTjN_j53Jr-39">
          <mxGeometry width="50" height="50" relative="1" as="geometry">
            <mxPoint x="1140" y="340" as="sourcePoint" />
            <mxPoint x="1190" y="290" as="targetPoint" />
          </mxGeometry>
        </mxCell>
        <mxCell id="xbuV6k483LfTjN_j53Jr-41" value="" style="endArrow=none;html=1;exitX=1;exitY=0.5;exitDx=0;exitDy=0;" edge="1" parent="1" source="xbuV6k483LfTjN_j53Jr-39">
          <mxGeometry width="50" height="50" relative="1" as="geometry">
            <mxPoint x="1460" y="360" as="sourcePoint" />
            <mxPoint x="1120" y="200" as="targetPoint" />
          </mxGeometry>
        </mxCell>
        <mxCell id="xbuV6k483LfTjN_j53Jr-42" value="6" style="text;html=1;strokeColor=none;fillColor=none;align=center;verticalAlign=middle;whiteSpace=wrap;rounded=0;" vertex="1" parent="1">
          <mxGeometry x="1080" y="190" width="40" height="20" as="geometry" />
        </mxCell>
        <mxCell id="xbuV6k483LfTjN_j53Jr-43" value="17" style="text;html=1;strokeColor=none;fillColor=none;align=center;verticalAlign=middle;whiteSpace=wrap;rounded=0;" vertex="1" parent="1">
          <mxGeometry x="1120" y="170" width="40" height="20" as="geometry" />
        </mxCell>
        <mxCell id="xbuV6k483LfTjN_j53Jr-44" value="17" style="text;html=1;strokeColor=none;fillColor=none;align=center;verticalAlign=middle;whiteSpace=wrap;rounded=0;" vertex="1" parent="1">
          <mxGeometry x="1120" y="210" width="40" height="20" as="geometry" />
        </mxCell>
        <mxCell id="xbuV6k483LfTjN_j53Jr-57" value="" style="edgeStyle=orthogonalEdgeStyle;rounded=0;orthogonalLoop=1;jettySize=auto;html=1;" edge="1" parent="1" source="xbuV6k483LfTjN_j53Jr-45" target="xbuV6k483LfTjN_j53Jr-6">
          <mxGeometry relative="1" as="geometry" />
        </mxCell>
        <mxCell id="xbuV6k483LfTjN_j53Jr-45" value="" style="ellipse;whiteSpace=wrap;html=1;aspect=fixed;" vertex="1" parent="1">
          <mxGeometry x="1240" y="160" width="80" height="80" as="geometry" />
        </mxCell>
        <mxCell id="xbuV6k483LfTjN_j53Jr-46" value="" style="endArrow=none;html=1;exitX=0.5;exitY=1;exitDx=0;exitDy=0;entryX=0.5;entryY=0;entryDx=0;entryDy=0;" edge="1" parent="1" source="xbuV6k483LfTjN_j53Jr-45" target="xbuV6k483LfTjN_j53Jr-45">
          <mxGeometry width="50" height="50" relative="1" as="geometry">
            <mxPoint x="1300" y="340" as="sourcePoint" />
            <mxPoint x="1350" y="290" as="targetPoint" />
          </mxGeometry>
        </mxCell>
        <mxCell id="xbuV6k483LfTjN_j53Jr-47" value="" style="endArrow=none;html=1;exitX=1;exitY=0.5;exitDx=0;exitDy=0;" edge="1" parent="1" source="xbuV6k483LfTjN_j53Jr-45">
          <mxGeometry width="50" height="50" relative="1" as="geometry">
            <mxPoint x="1620" y="360" as="sourcePoint" />
            <mxPoint x="1280" y="200" as="targetPoint" />
          </mxGeometry>
        </mxCell>
        <mxCell id="xbuV6k483LfTjN_j53Jr-48" value="7" style="text;html=1;strokeColor=none;fillColor=none;align=center;verticalAlign=middle;whiteSpace=wrap;rounded=0;" vertex="1" parent="1">
          <mxGeometry x="1240" y="190" width="40" height="20" as="geometry" />
        </mxCell>
        <mxCell id="xbuV6k483LfTjN_j53Jr-49" value="17 1/2" style="text;html=1;strokeColor=none;fillColor=none;align=center;verticalAlign=middle;whiteSpace=wrap;rounded=0;" vertex="1" parent="1">
          <mxGeometry x="1280" y="170" width="40" height="20" as="geometry" />
        </mxCell>
        <mxCell id="xbuV6k483LfTjN_j53Jr-50" value="17 1/2" style="text;html=1;strokeColor=none;fillColor=none;align=center;verticalAlign=middle;whiteSpace=wrap;rounded=0;" vertex="1" parent="1">
          <mxGeometry x="1280" y="210" width="40" height="20" as="geometry" />
        </mxCell>
        <mxCell id="xbuV6k483LfTjN_j53Jr-58" value="A(10)" style="text;html=1;align=center;verticalAlign=middle;resizable=0;points=[];autosize=1;strokeColor=none;fillColor=none;" vertex="1" parent="1">
          <mxGeometry x="374" y="180" width="40" height="20" as="geometry" />
        </mxCell>
        <mxCell id="xbuV6k483LfTjN_j53Jr-60" value="B(1/2)" style="text;html=1;align=center;verticalAlign=middle;resizable=0;points=[];autosize=1;strokeColor=none;fillColor=none;" vertex="1" parent="1">
          <mxGeometry x="530" y="180" width="50" height="20" as="geometry" />
        </mxCell>
        <mxCell id="xbuV6k483LfTjN_j53Jr-61" value="C(1/2)" style="text;html=1;align=center;verticalAlign=middle;resizable=0;points=[];autosize=1;strokeColor=none;fillColor=none;" vertex="1" parent="1">
          <mxGeometry x="680" y="180" width="50" height="20" as="geometry" />
        </mxCell>
        <mxCell id="xbuV6k483LfTjN_j53Jr-62" value="D(2 y 1/2)" style="text;html=1;align=center;verticalAlign=middle;resizable=0;points=[];autosize=1;strokeColor=none;fillColor=none;" vertex="1" parent="1">
          <mxGeometry x="840" y="180" width="70" height="20" as="geometry" />
        </mxCell>
        <mxCell id="xbuV6k483LfTjN_j53Jr-63" value="E(3 y 1/2)" style="text;html=1;align=center;verticalAlign=middle;resizable=0;points=[];autosize=1;strokeColor=none;fillColor=none;" vertex="1" parent="1">
          <mxGeometry x="1000" y="180" width="70" height="20" as="geometry" />
        </mxCell>
        <mxCell id="xbuV6k483LfTjN_j53Jr-64" value="F(1/2)" style="text;html=1;align=center;verticalAlign=middle;resizable=0;points=[];autosize=1;strokeColor=none;fillColor=none;" vertex="1" parent="1">
          <mxGeometry x="1170" y="180" width="50" height="20" as="geometry" />
        </mxCell>
        <mxCell id="xbuV6k483LfTjN_j53Jr-65" value="G(1 1/2)" style="text;html=1;align=center;verticalAlign=middle;resizable=0;points=[];autosize=1;strokeColor=none;fillColor=none;" vertex="1" parent="1">
          <mxGeometry x="1320" y="180" width="60" height="20" as="geometry" />
        </mxCell>
        <mxCell id="xbuV6k483LfTjN_j53Jr-66" value="" style="ellipse;whiteSpace=wrap;html=1;aspect=fixed;" vertex="1" parent="1">
          <mxGeometry x="1560" y="160" width="80" height="80" as="geometry" />
        </mxCell>
        <mxCell id="xbuV6k483LfTjN_j53Jr-67" value="" style="endArrow=none;html=1;exitX=0.5;exitY=1;exitDx=0;exitDy=0;entryX=0.5;entryY=0;entryDx=0;entryDy=0;" edge="1" parent="1" source="xbuV6k483LfTjN_j53Jr-66" target="xbuV6k483LfTjN_j53Jr-66">
          <mxGeometry width="50" height="50" relative="1" as="geometry">
            <mxPoint x="1620" y="340" as="sourcePoint" />
            <mxPoint x="1670" y="290" as="targetPoint" />
          </mxGeometry>
        </mxCell>
        <mxCell id="xbuV6k483LfTjN_j53Jr-68" value="" style="endArrow=none;html=1;exitX=1;exitY=0.5;exitDx=0;exitDy=0;" edge="1" parent="1" source="xbuV6k483LfTjN_j53Jr-66">
          <mxGeometry width="50" height="50" relative="1" as="geometry">
            <mxPoint x="1940" y="360" as="sourcePoint" />
            <mxPoint x="1600" y="200" as="targetPoint" />
          </mxGeometry>
        </mxCell>
        <mxCell id="xbuV6k483LfTjN_j53Jr-69" value="8" style="text;html=1;strokeColor=none;fillColor=none;align=center;verticalAlign=middle;whiteSpace=wrap;rounded=0;" vertex="1" parent="1">
          <mxGeometry x="1560" y="190" width="40" height="20" as="geometry" />
        </mxCell>
        <mxCell id="xbuV6k483LfTjN_j53Jr-70" value="19" style="text;html=1;strokeColor=none;fillColor=none;align=center;verticalAlign=middle;whiteSpace=wrap;rounded=0;" vertex="1" parent="1">
          <mxGeometry x="1600" y="170" width="40" height="20" as="geometry" />
        </mxCell>
        <mxCell id="xbuV6k483LfTjN_j53Jr-71" value="19" style="text;html=1;strokeColor=none;fillColor=none;align=center;verticalAlign=middle;whiteSpace=wrap;rounded=0;" vertex="1" parent="1">
          <mxGeometry x="1600" y="210" width="40" height="20" as="geometry" />
        </mxCell>
      </root>
    </mxGraphModel>
  </diagram>
</mxfile>
